<?xml version="1.0" encoding="utf-8"?><!-- Uploaded to: SVG Repo, www.svgrepo.com, Generator: SVG Repo Mixer Tools -->
<svg width="800px" height="800px" viewBox="0 0 24 24" fill="none" xmlns="http://www.w3.org/2000/svg">
<path d="M12 3V11M12 11L9 8M12 11L15 8M2.5 14.5L3.11612 15.1161C3.68206 15.6821 4.44964 16 5.25 16C6.05036 16 6.81794 15.6821 7.38388 15.1161L7.61612 14.8839C8.18206 14.3179 8.94964 14 9.75 14C10.5504 14 11.3179 14.3179 11.8839 14.8839L12.1161 15.1161C12.6821 15.6821 13.4496 16 14.25 16C15.0504 16 15.8179 15.6821 16.3839 15.1161L16.6161 14.8839C17.1821 14.3179 17.9496 14 18.75 14C19.5504 14 20.3179 14.3179 20.8839 14.8839L21.5 15.5M2.5 19.5L3.11612 20.1161C3.68206 20.6821 4.44964 21 5.25 21C6.05036 21 6.81794 20.6821 7.38388 20.1161L7.61612 19.8839C8.18206 19.3179 8.94964 19 9.75 19C10.5504 19 11.3179 19.3179 11.8839 19.8839L12.1161 20.1161C12.6821 20.6821 13.4496 21 14.25 21C15.0504 21 15.8179 20.6821 16.3839 20.1161L16.6161 19.8839C17.1821 19.3179 17.9496 19 18.75 19C19.5504 19 20.3179 19.3179 20.8839 19.8839L21.5 20.5" stroke="#000000" stroke-width="2" stroke-linecap="round" stroke-linejoin="round"/>
</svg>